<mxfile host="app.diagrams.net" agent="Mozilla/5.0 (Windows NT 10.0; Win64; x64) AppleWebKit/537.36 (KHTML, like Gecko) Chrome/129.0.0.0 Safari/537.36" version="26.0.15">
  <diagram name="部署图" id="ckwd7PbONQP2WXn0G9DW">
    <mxGraphModel dx="934" dy="1663" grid="1" gridSize="10" guides="0" tooltips="1" connect="1" arrows="1" fold="1" page="1" pageScale="1" pageWidth="827" pageHeight="1169" math="0" shadow="0">
      <root>
        <mxCell id="0" />
        <mxCell id="1" parent="0" />
        <mxCell id="poh_Y1PGnXqLrGlGe4Tp-27" style="edgeStyle=orthogonalEdgeStyle;curved=1;rounded=0;orthogonalLoop=1;jettySize=auto;html=1;entryX=0;entryY=0.5;entryDx=0;entryDy=0;" edge="1" parent="1" source="poh_Y1PGnXqLrGlGe4Tp-1" target="poh_Y1PGnXqLrGlGe4Tp-6">
          <mxGeometry relative="1" as="geometry" />
        </mxCell>
        <mxCell id="poh_Y1PGnXqLrGlGe4Tp-1" value="&lt;span style=&quot;color: rgb(20, 29, 46); text-align: start; white-space-collapse: preserve;&quot;&gt;api&lt;/span&gt;" style="rounded=0;whiteSpace=wrap;html=1;fontSize=15;fontFamily=Helvetica;labelBackgroundColor=none;fillColor=#f8cecc;strokeColor=#b85450;" vertex="1" parent="1">
          <mxGeometry x="40" y="130" width="120" height="60" as="geometry" />
        </mxCell>
        <mxCell id="poh_Y1PGnXqLrGlGe4Tp-28" style="edgeStyle=orthogonalEdgeStyle;curved=1;rounded=0;orthogonalLoop=1;jettySize=auto;html=1;entryX=1;entryY=0.5;entryDx=0;entryDy=0;" edge="1" parent="1" source="poh_Y1PGnXqLrGlGe4Tp-2" target="poh_Y1PGnXqLrGlGe4Tp-6">
          <mxGeometry relative="1" as="geometry" />
        </mxCell>
        <mxCell id="poh_Y1PGnXqLrGlGe4Tp-30" style="edgeStyle=orthogonalEdgeStyle;curved=1;rounded=0;orthogonalLoop=1;jettySize=auto;html=1;entryX=0.5;entryY=0;entryDx=0;entryDy=0;" edge="1" parent="1" source="poh_Y1PGnXqLrGlGe4Tp-2" target="poh_Y1PGnXqLrGlGe4Tp-5">
          <mxGeometry relative="1" as="geometry" />
        </mxCell>
        <mxCell id="poh_Y1PGnXqLrGlGe4Tp-2" value="&lt;span style=&quot;color: rgb(20, 29, 46); text-align: start; white-space-collapse: preserve;&quot;&gt;worker &lt;/span&gt;" style="rounded=0;whiteSpace=wrap;html=1;fontSize=15;fontFamily=Helvetica;labelBackgroundColor=none;fillColor=#f8cecc;strokeColor=#b85450;" vertex="1" parent="1">
          <mxGeometry x="510" y="130" width="120" height="60" as="geometry" />
        </mxCell>
        <mxCell id="poh_Y1PGnXqLrGlGe4Tp-20" style="edgeStyle=orthogonalEdgeStyle;curved=1;rounded=0;orthogonalLoop=1;jettySize=auto;html=1;" edge="1" parent="1" source="poh_Y1PGnXqLrGlGe4Tp-3" target="poh_Y1PGnXqLrGlGe4Tp-1">
          <mxGeometry relative="1" as="geometry" />
        </mxCell>
        <mxCell id="poh_Y1PGnXqLrGlGe4Tp-21" style="edgeStyle=orthogonalEdgeStyle;curved=1;rounded=0;orthogonalLoop=1;jettySize=auto;html=1;entryX=0.5;entryY=0;entryDx=0;entryDy=0;" edge="1" parent="1" source="poh_Y1PGnXqLrGlGe4Tp-3" target="poh_Y1PGnXqLrGlGe4Tp-2">
          <mxGeometry relative="1" as="geometry" />
        </mxCell>
        <mxCell id="poh_Y1PGnXqLrGlGe4Tp-3" value="&lt;span style=&quot;color: rgb(20, 29, 46); text-align: start; white-space-collapse: preserve;&quot;&gt;web&lt;/span&gt;" style="rounded=0;whiteSpace=wrap;html=1;fontSize=15;fontFamily=Helvetica;labelBackgroundColor=none;fillColor=#f8cecc;strokeColor=#b85450;" vertex="1" parent="1">
          <mxGeometry x="260" y="30" width="120" height="60" as="geometry" />
        </mxCell>
        <mxCell id="poh_Y1PGnXqLrGlGe4Tp-4" value="&lt;span style=&quot;color: rgb(20, 29, 46); text-align: start; white-space-collapse: preserve;&quot;&gt;weaviate &lt;/span&gt;" style="rounded=0;whiteSpace=wrap;html=1;fillColor=#d5e8d4;strokeColor=#82b366;fontSize=15;fontFamily=Helvetica;labelBackgroundColor=none;" vertex="1" parent="1">
          <mxGeometry x="440" y="280" width="140" height="50" as="geometry" />
        </mxCell>
        <mxCell id="poh_Y1PGnXqLrGlGe4Tp-5" value="&lt;p&gt;&lt;span style=&quot;color: rgb(20, 29, 46); text-align: start; white-space-collapse: preserve;&quot;&gt;&lt;font&gt;db（postgres) &lt;/font&gt;&lt;/span&gt;&lt;/p&gt;" style="rounded=0;whiteSpace=wrap;html=1;fillColor=#d5e8d4;strokeColor=#82b366;fontSize=15;fontFamily=Helvetica;labelBackgroundColor=none;" vertex="1" parent="1">
          <mxGeometry x="270" y="370" width="120" height="60" as="geometry" />
        </mxCell>
        <mxCell id="poh_Y1PGnXqLrGlGe4Tp-6" value="&lt;span style=&quot;color: rgb(20, 29, 46); text-align: start; white-space-collapse: preserve;&quot;&gt;redis &lt;/span&gt;" style="rounded=0;whiteSpace=wrap;html=1;fillColor=#d5e8d4;strokeColor=#82b366;fontSize=15;fontFamily=Helvetica;labelBackgroundColor=none;" vertex="1" parent="1">
          <mxGeometry x="270" y="130" width="120" height="60" as="geometry" />
        </mxCell>
        <mxCell id="poh_Y1PGnXqLrGlGe4Tp-19" style="edgeStyle=orthogonalEdgeStyle;rounded=0;orthogonalLoop=1;jettySize=auto;html=1;entryX=0.5;entryY=0;entryDx=0;entryDy=0;fontSize=15;fontFamily=Helvetica;labelBackgroundColor=none;" edge="1" parent="1" source="poh_Y1PGnXqLrGlGe4Tp-7" target="poh_Y1PGnXqLrGlGe4Tp-3">
          <mxGeometry relative="1" as="geometry" />
        </mxCell>
        <mxCell id="poh_Y1PGnXqLrGlGe4Tp-7" value="&lt;span style=&quot;color: rgb(20, 29, 46); text-align: start; white-space-collapse: preserve;&quot;&gt;nginx &lt;/span&gt;" style="rounded=0;whiteSpace=wrap;html=1;fillColor=#d5e8d4;strokeColor=#82b366;fontSize=15;fontFamily=Helvetica;labelBackgroundColor=none;" vertex="1" parent="1">
          <mxGeometry x="260" y="-90" width="120" height="60" as="geometry" />
        </mxCell>
        <mxCell id="poh_Y1PGnXqLrGlGe4Tp-8" value="&lt;span style=&quot;color: rgb(20, 29, 46); text-align: start; white-space-collapse: preserve;&quot;&gt;ssrf_proxy &lt;/span&gt;" style="rounded=0;whiteSpace=wrap;html=1;fillColor=#d5e8d4;strokeColor=#82b366;fontSize=15;fontFamily=Helvetica;labelBackgroundColor=none;" vertex="1" parent="1">
          <mxGeometry x="40" y="260" width="120" height="60" as="geometry" />
        </mxCell>
        <mxCell id="poh_Y1PGnXqLrGlGe4Tp-9" value="&lt;code class=&quot;py-[1px] px-1.5 min-w-[1.625rem] justify-center items-center ring-1 ring-inset ring-tint bg-tint rounded text-[.875em] leading-[calc(max(1.20em,1.25rem))]&quot; style=&quot;--tw-border-spacing-x: 0; --tw-border-spacing-y: 0; --tw-translate-x: 0; --tw-translate-y: 0; --tw-rotate: 0; --tw-skew-x: 0; --tw-skew-y: 0; --tw-scale-x: 1; --tw-scale-y: 1; --tw-pan-x: ; --tw-pan-y: ; --tw-pinch-zoom: ; --tw-scroll-snap-strictness: proximity; --tw-gradient-from-position: ; --tw-gradient-via-position: ; --tw-gradient-to-position: ; --tw-ordinal: ; --tw-slashed-zero: ; --tw-numeric-figure: ; --tw-numeric-spacing: ; --tw-numeric-fraction: ; --tw-ring-inset: inset; --tw-ring-offset-width: 0px; --tw-ring-offset-color: #fff; --tw-ring-color: rgb(var(--tint-7)); --tw-ring-offset-shadow: var(--tw-ring-inset) 0 0 0 var(--tw-ring-offset-width) var(--tw-ring-offset-color); --tw-ring-shadow: var(--tw-ring-inset) 0 0 0 calc(1px + var(--tw-ring-offset-width)) var(--tw-ring-color); --tw-shadow: 0 0 #0000; --tw-shadow-colored: 0 0 #0000; --tw-blur: ; --tw-brightness: ; --tw-contrast: ; --tw-grayscale: ; --tw-hue-rotate: ; --tw-invert: ; --tw-saturate: ; --tw-sepia: ; --tw-drop-shadow: ; --tw-backdrop-blur: ; --tw-backdrop-brightness: ; --tw-backdrop-contrast: ; --tw-backdrop-grayscale: ; --tw-backdrop-hue-rotate: ; --tw-backdrop-invert: ; --tw-backdrop-opacity: ; --tw-backdrop-saturate: ; --tw-backdrop-sepia: ; --tw-contain-size: ; --tw-contain-layout: ; --tw-contain-paint: ; --tw-contain-style: ; box-sizing: border-box; border: 0px solid rgb(229, 231, 235); font-feature-settings: normal; font-variation-settings: normal; -webkit-font-smoothing: auto; min-width: 1.625rem; align-items: center; justify-content: center; border-radius: 0.25rem; padding: 1px 0.375rem; line-height: max(1.2em, 1.25rem); box-shadow: var(--tw-ring-offset-shadow),var(--tw-ring-shadow),var(--tw-shadow,0 0 #0000); color: rgb(20, 29, 46); text-align: start; white-space-collapse: preserve;&quot;&gt;sandbox&lt;/code&gt;&lt;span style=&quot;color: rgb(20, 29, 46); text-align: start; white-space-collapse: preserve;&quot;&gt; &lt;/span&gt;" style="rounded=0;whiteSpace=wrap;html=1;fillColor=#d5e8d4;strokeColor=#82b366;fontSize=15;fontFamily=Helvetica;labelBackgroundColor=none;fontStyle=1" vertex="1" parent="1">
          <mxGeometry x="40" y="350" width="120" height="60" as="geometry" />
        </mxCell>
        <mxCell id="poh_Y1PGnXqLrGlGe4Tp-11" value="&lt;div style=&quot;color: rgb(212, 212, 212); line-height: 19px; white-space: pre;&quot;&gt;&lt;span style=&quot;color: #ce9178;&quot;&gt;milvus-etcd&lt;/span&gt;&lt;/div&gt;" style="rounded=0;whiteSpace=wrap;html=1;fillColor=#d5e8d4;strokeColor=#82b366;fontSize=15;fontFamily=Helvetica;labelBackgroundColor=none;" vertex="1" parent="1">
          <mxGeometry x="680" y="370" width="120" height="60" as="geometry" />
        </mxCell>
        <mxCell id="poh_Y1PGnXqLrGlGe4Tp-12" value="&lt;div style=&quot;color: rgb(212, 212, 212); line-height: 19px; white-space: pre;&quot;&gt;&lt;div style=&quot;line-height: 19px;&quot;&gt;&lt;span style=&quot;color: #ce9178;&quot;&gt;milvus-minio&lt;/span&gt;&lt;/div&gt;&lt;/div&gt;" style="rounded=0;whiteSpace=wrap;html=1;fillColor=#d5e8d4;strokeColor=#82b366;fontSize=15;fontFamily=Helvetica;labelBackgroundColor=none;" vertex="1" parent="1">
          <mxGeometry x="680" y="470" width="120" height="60" as="geometry" />
        </mxCell>
        <mxCell id="poh_Y1PGnXqLrGlGe4Tp-31" style="edgeStyle=orthogonalEdgeStyle;curved=1;rounded=0;orthogonalLoop=1;jettySize=auto;html=1;" edge="1" parent="1" source="poh_Y1PGnXqLrGlGe4Tp-15" target="poh_Y1PGnXqLrGlGe4Tp-11">
          <mxGeometry relative="1" as="geometry" />
        </mxCell>
        <mxCell id="poh_Y1PGnXqLrGlGe4Tp-32" style="edgeStyle=orthogonalEdgeStyle;curved=1;rounded=0;orthogonalLoop=1;jettySize=auto;html=1;exitX=0.5;exitY=1;exitDx=0;exitDy=0;entryX=0;entryY=0.5;entryDx=0;entryDy=0;" edge="1" parent="1" source="poh_Y1PGnXqLrGlGe4Tp-15" target="poh_Y1PGnXqLrGlGe4Tp-12">
          <mxGeometry relative="1" as="geometry" />
        </mxCell>
        <mxCell id="poh_Y1PGnXqLrGlGe4Tp-15" value="&lt;div style=&quot;color: rgb(212, 212, 212); line-height: 19px; white-space: pre;&quot;&gt;&lt;div style=&quot;line-height: 19px;&quot;&gt;&lt;div style=&quot;line-height: 19px;&quot;&gt;&lt;span style=&quot;color: #ce9178;&quot;&gt;milvus-standalone&lt;/span&gt;&lt;/div&gt;&lt;/div&gt;&lt;/div&gt;" style="rounded=0;whiteSpace=wrap;html=1;fillColor=#d5e8d4;strokeColor=#82b366;fontSize=15;fontFamily=Helvetica;labelBackgroundColor=none;" vertex="1" parent="1">
          <mxGeometry x="440" y="370" width="150" height="60" as="geometry" />
        </mxCell>
        <mxCell id="poh_Y1PGnXqLrGlGe4Tp-29" style="edgeStyle=orthogonalEdgeStyle;curved=1;rounded=0;orthogonalLoop=1;jettySize=auto;html=1;entryX=0.442;entryY=-0.011;entryDx=0;entryDy=0;entryPerimeter=0;" edge="1" parent="1" source="poh_Y1PGnXqLrGlGe4Tp-1" target="poh_Y1PGnXqLrGlGe4Tp-5">
          <mxGeometry relative="1" as="geometry" />
        </mxCell>
      </root>
    </mxGraphModel>
  </diagram>
</mxfile>
